PathFileType	4	(X/Y/Z)	s08c0402.trc
DataRate	CameraRate	NumFrames	NumMarkers	Units	OrigDataRate	OrigDataStartFrame	OrigNumFrames
200	200	4	50	mm	200	0	2000
Frame#	Time	racr			lacr			c7			jug			rlel			rdr			llel			ldr			s2			lic			ric			lasi			rasi			rpsi			lpsi			rgt			lgt			rth1			rth2			rth3			rth4			rlfc			rmfc			rsh1			rsh2			rsh3			rsh4			rlmal			rmmal			rcal			rtoe			rmt5			lth1			lth2			lth4			lth3			llfc			lmfc			llmal			lmmal			lcal			lmt5			lsh1			lsh2			lsh3			lsh4			ltoe			SBIKE			LBIKE			RBIKE			
		X1	Y1	Z1	X2	Y2	Z2	X3	Y3	Z3	X4	Y4	Z4	X5	Y5	Z5	X6	Y6	Z6	X7	Y7	Z7	X8	Y8	Z8	X9	Y9	Z9	X10	Y10	Z10	X11	Y11	Z11	X12	Y12	Z12	X13	Y13	Z13	X14	Y14	Z14	X15	Y15	Z15	X16	Y16	Z16	X17	Y17	Z17	X18	Y18	Z18	X19	Y19	Z19	X20	Y20	Z20	X21	Y21	Z21	X22	Y22	Z22	X23	Y23	Z23	X24	Y24	Z24	X25	Y25	Z25	X26	Y26	Z26	X27	Y27	Z27	X28	Y28	Z28	X29	Y29	Z29	X30	Y30	Z30	X31	Y31	Z31	X32	Y32	Z32	X33	Y33	Z33	X34	Y34	Z34	X35	Y35	Z35	X36	Y36	Z36	X37	Y37	Z37	X38	Y38	Z38	X39	Y39	Z39	X40	Y40	Z40	X41	Y41	Z41	X42	Y42	Z42	X43	Y43	Z43	X44	Y44	Z44	X45	Y45	Z45	X46	Y46	Z46	X47	Y47	Z47	X48	Y48	Z48	X49	Y49	Z49	X50	Y50	Z50	
0	0.0000	507.898066	1391.282411	-63.199744	531.670369	1400.203713	-446.244817	499.990673	1469.283437	-249.363435	482.417619	1314.686999	-241.889458	551.292663	1132.679519	-3.041952	783.541323	937.615982	-68.379012	571.033367	1134.417217	-504.626117	779.494277	933.989793	-441.856935	-24.966737	1197.674599	-251.420739	147.544445	1173.473069	-393.580520	132.990836	1214.425335	-89.999124	168.969349	1122.515277	-359.499366	158.585263	1156.934582	-119.261753	3.017901	1242.767534	-203.271540	9.282919	1236.879196	-298.177806	59.488438	1114.396568	-42.974607	67.429545	1059.286488	-416.846560	197.982197	1019.858412	-29.608092	284.902476	1001.046268	-26.628249	348.721014	941.310829	-27.162103	301.987096	1031.552420	-40.865602	441.520375	865.244480	-46.829295	429.283835	860.484300	-155.029575	345.048343	780.318467	-21.955516	302.443601	703.727447	-48.979466	229.896697	659.298148	-54.814102	344.598466	701.942708	-101.318954	143.932492	580.144001	-70.134694	165.088819	599.202030	-156.758867	57.028187	568.899223	-114.795515	346.405200	503.184827	-109.228329	253.868201	490.762609	-42.645188	113.749963	932.193679	-434.229770	161.108606	858.338940	-433.842555	188.605607	870.775834	-451.946576	163.363666	769.316298	-427.368037	193.743805	646.002910	-403.917573	193.932360	623.159572	-303.722908	182.681013	230.798328	-400.529552	222.778497	263.248706	-331.327242	122.980465	204.728812	-361.051991	329.506505	146.689577	-421.663545	181.825142	519.086425	-431.331601	203.418443	437.274524	-414.231387	184.174372	351.485439	-416.317799	224.548779	441.508089	-381.464504	411.146958	178.015895	-353.458609	-146.411233	938.648149	-227.581555	10.462626	80.031193	-427.004943	10.687322	80.083435	-28.225251	
1	0.0050	507.944263	1391.224169	-63.151276	531.655238	1400.165357	-446.309924	500.007347	1469.253169	-249.412881	482.385939	1314.661177	-241.896096	551.270536	1132.673357	-2.835423	783.542524	937.667133	-68.203686	570.974756	1134.350689	-504.626114	779.452864	933.957994	-441.750588	-24.927184	1197.675890	-251.500992	147.543408	1173.481239	-393.581436	132.960035	1214.482100	-90.036422	168.980742	1122.547538	-359.520912	158.549175	1156.996480	-119.273429	3.012991	1242.734977	-203.330398	9.264523	1236.912789	-298.225336	59.471959	1114.406836	-43.010619	67.432152	1059.289348	-416.866260	197.974395	1019.882293	-29.618979	284.873526	1001.075295	-26.612156	348.655026	941.294679	-27.153377	301.980044	1031.586805	-40.869524	441.499191	865.232625	-46.811980	429.239619	860.528707	-155.088493	345.007376	780.310386	-21.945472	302.421062	703.738197	-48.978667	229.896301	659.293170	-54.811384	344.597023	701.945240	-101.316008	143.917316	580.152500	-70.114391	165.098387	599.220396	-156.778109	57.036380	568.894493	-114.792324	346.412979	503.188053	-109.219859	253.874261	490.796237	-42.645406	113.760751	932.187160	-434.272233	161.114524	858.319584	-433.874642	188.606602	870.739096	-451.946022	163.360057	769.285257	-427.371608	193.767044	645.998780	-403.902985	193.965715	623.135606	-303.764529	182.669750	230.801503	-400.543517	222.736268	263.219130	-331.277708	122.954701	204.739263	-361.066200	329.492273	146.688748	-421.648422	181.842367	519.082178	-431.335281	203.411450	437.292480	-414.239529	184.180871	351.482436	-416.322218	224.551993	441.504428	-381.451827	411.142949	178.025072	-353.461070	-146.419121	938.643393	-227.593595	10.464090	80.022660	-426.997529	10.678492	80.227362	-28.129332	
2	0.0100	507.972051	1391.200531	-63.146787	531.635826	1400.094793	-446.323179	500.070566	1469.211258	-249.479561	482.384992	1314.678441	-241.903253	551.292831	1132.685855	-2.668174	783.557909	937.686019	-68.051061	570.941841	1134.275330	-504.605325	779.416387	933.923771	-441.655111	-24.930952	1197.650190	-251.545179	147.556899	1173.496032	-393.604101	132.949019	1214.533620	-90.073245	169.013345	1122.546754	-359.538694	158.508884	1157.035778	-119.324353	3.028073	1242.698567	-203.358740	9.276739	1236.908990	-298.264401	59.448807	1114.427011	-43.044746	67.442146	1059.274661	-416.882715	197.951626	1019.919749	-29.627200	284.875673	1001.105914	-26.620484	348.687365	941.330140	-27.159657	301.970605	1031.601675	-40.871857	441.482347	865.247243	-46.796337	429.239619	860.528707	-155.088493	344.992805	780.328309	-21.928998	302.429852	703.741164	-48.987374	229.895242	659.287335	-54.815131	344.635780	701.941369	-101.293645	143.916157	580.149226	-70.124735	165.095601	599.201601	-156.771481	57.037076	568.880874	-114.799453	346.427777	503.216395	-109.223899	253.873594	490.817209	-42.654077	113.764595	932.166487	-434.301645	161.112538	858.309659	-433.897220	188.608475	870.763105	-452.012434	163.365372	769.280016	-427.389568	193.785984	645.980191	-403.893980	193.994420	623.133843	-303.757600	182.647322	230.779891	-400.530031	222.758408	263.233980	-331.310140	122.941646	204.726078	-361.072556	329.481642	146.681407	-421.645446	181.845931	519.071912	-431.336434	203.419805	437.290928	-414.239080	184.173833	351.472525	-416.321418	224.552336	441.510037	-381.446241	411.120905	178.005137	-353.450873	-146.416336	938.645028	-227.594926	10.458942	80.026499	-426.996561	10.682896	80.084377	-28.224892	
3	0.0150	507.294899	1390.297915	-64.786971	532.822306	1400.283657	-443.933761	500.082977	1469.181205	-249.469490	482.371060	1314.643792	-241.926295	551.327020	1132.696592	-2.518738	783.572260	937.721100	-67.908801	570.547410	1135.659162	-509.037968	780.001094	933.249920	-439.626363	-24.998806	1197.237013	-251.354502	148.120647	1175.010755	-399.120955	132.906258	1214.902072	-90.756130	168.475603	1122.054724	-357.685216	158.483907	1157.074017	-119.346165	2.291908	1242.357248	-203.334852	9.295350	1236.906993	-298.318858	59.274465	1114.377193	-43.146122	67.470104	1059.257716	-416.892870	197.946709	1019.934102	-29.638746	284.955068	1001.338815	-26.740167	348.681273	941.364571	-27.171478	300.917631	1031.819291	-42.237831	441.498899	865.250202	-47.274587	429.255249	860.535310	-155.031112	345.021132	780.340570	-21.935883	303.075311	703.870117	-47.720207	229.848089	659.303785	-54.774442	335.055378	701.354932	-98.857471	143.914865	580.139831	-70.036720	165.124812	599.207980	-156.755819	57.071849	568.869024	-114.812883	346.459161	503.167142	-109.167402	253.028446	490.787020	-43.917268	113.847920	932.013292	-434.313825	161.213933	858.191687	-433.758755	190.725656	870.191452	-443.313090	163.603992	769.250619	-426.893531	197.546894	650.541151	-412.144540	193.018992	624.181274	-309.662538	183.331233	229.725286	-398.998281	222.695702	263.201763	-331.287325	122.905217	204.713668	-361.062149	328.543868	148.582144	-424.316019	180.971679	520.181625	-433.507867	203.115374	438.822823	-417.422730	183.543373	352.491146	-417.920786	224.356222	442.980178	-384.628507	410.061347	179.961413	-356.226373	-146.473016	938.628242	-227.588805	10.459630	80.033879	-427.008061	10.673490	80.087950	-28.237988	
